<?xml version="1.0" encoding="UTF-8" standalone="no"?>
<!-- Created with Inkscape (http://www.inkscape.org/) -->

<svg
   width="45.609127mm"
   height="12.955761mm"
   viewBox="0 0 45.609127 12.955761"
   version="1.1"
   id="svg5"
   sodipodi:docname="Hermes-white.svg"
   inkscape:version="1.2.2 (b0a8486541, 2022-12-01)"
   xmlns:inkscape="http://www.inkscape.org/namespaces/inkscape"
   xmlns:sodipodi="http://sodipodi.sourceforge.net/DTD/sodipodi-0.dtd"
   xmlns="http://www.w3.org/2000/svg"
   xmlns:svg="http://www.w3.org/2000/svg">
  <sodipodi:namedview
     id="namedview21"
     pagecolor="#ffffff"
     bordercolor="#666666"
     borderopacity="1.0"
     inkscape:showpageshadow="2"
     inkscape:pageopacity="0.0"
     inkscape:pagecheckerboard="0"
     inkscape:deskcolor="#d1d1d1"
     inkscape:document-units="mm"
     showgrid="false"
     inkscape:zoom="7.4036114"
     inkscape:cx="30.660713"
     inkscape:cy="33.429632"
     inkscape:window-width="1854"
     inkscape:window-height="1131"
     inkscape:window-x="0"
     inkscape:window-y="0"
     inkscape:window-maximized="1"
     inkscape:current-layer="layer1" />
  <defs
     id="defs2">
    <marker
       style="overflow:visible"
       id="marker4816"
       refX="0"
       refY="0"
       orient="auto"
       inkscape:stockid="Arrow1L"
       markerWidth="4"
       markerHeight="2.5"
       viewBox="0 0 8.75 5"
       inkscape:isstock="true"
       inkscape:collect="always"
       preserveAspectRatio="xMidYMid">
      <path
         style="fill:context-stroke;fill-rule:evenodd;stroke:none"
         d="M 0,0 5,-5 -12.5,0 5,5 Z"
         id="path4814"
         transform="scale(-0.5)" />
    </marker>
    <marker
       style="overflow:visible"
       id="marker3858"
       refX="0"
       refY="0"
       orient="auto"
       inkscape:stockid="Arrow1L"
       markerWidth="4"
       markerHeight="2.5"
       viewBox="0 0 8.75 5"
       inkscape:isstock="true"
       inkscape:collect="always"
       preserveAspectRatio="xMidYMid">
      <path
         style="fill:context-stroke;fill-rule:evenodd;stroke:none"
         d="M 0,0 5,-5 -12.5,0 5,5 Z"
         id="path3856"
         transform="scale(-0.5)" />
    </marker>
    <marker
       style="overflow:visible"
       id="marker4734"
       refX="0"
       refY="0"
       orient="auto-start-reverse"
       inkscape:stockid="Arrow1L"
       markerWidth="3.3333333"
       markerHeight="2"
       viewBox="0 0 8.75 5"
       inkscape:isstock="true"
       inkscape:collect="always"
       preserveAspectRatio="xMidYMid">
      <path
         style="fill:context-stroke;fill-rule:evenodd;stroke:none"
         d="M 0,0 5,-5 -12.5,0 5,5 Z"
         id="path4732"
         transform="scale(-0.5)" />
    </marker>
    <marker
       style="overflow:visible"
       id="Arrow1L"
       refX="0"
       refY="0"
       orient="auto-start-reverse"
       inkscape:stockid="Arrow1L"
       markerWidth="5"
       markerHeight="2"
       viewBox="0 0 8.75 5"
       inkscape:isstock="true"
       inkscape:collect="always"
       preserveAspectRatio="xMidYMid">
      <path
         style="fill:context-stroke;fill-rule:evenodd;stroke:none"
         d="M 0,0 5,-5 -12.5,0 5,5 Z"
         id="arrow1L"
         transform="scale(-0.5)" />
    </marker>
    <marker
       style="overflow:visible"
       id="marker7826"
       refX="0"
       refY="0"
       orient="auto-start-reverse"
       markerWidth="16.532259"
       markerHeight="10.25"
       viewBox="0 0 8.75 5"
       preserveAspectRatio="xMidYMid">
      <path
         style="fill:#00ac04;fill-rule:evenodd;stroke:none"
         d="M 0,0 5,-5 -12.5,0 5,5 Z"
         id="path7824"
         transform="scale(-0.5)" />
    </marker>
    <marker
       style="overflow:visible"
       id="marker7328"
       refX="0"
       refY="0"
       orient="auto-start-reverse"
       markerWidth="50"
       markerHeight="10"
       viewBox="0 0 8.75 5"
       preserveAspectRatio="xMidYMid">
      <path
         style="fill:#00ac04;fill-rule:evenodd;stroke:none"
         d="M 0,0 5,-5 -12.5,0 5,5 Z"
         id="path7326"
         transform="scale(-0.5)" />
    </marker>
    <linearGradient
       id="linearGradient1807">
      <stop
         style="stop-color:#ff0000;stop-opacity:1;"
         offset="0"
         id="stop1805" />
    </linearGradient>
  </defs>
  <g
     id="layer1"
     transform="translate(-33.551646,-77.326032)">
    <g
       aria-label="H"
       id="text1153-8"
       style="font-style:italic;font-size:12.7px;font-family:'Noto Serif';-inkscape-font-specification:'Noto Serif, Italic';fill:#ffffff;stroke-width:0.264583" />
    <g
       aria-label="ermes"
       id="text1153-8-0"
       style="font-style:italic;font-size:12.7px;font-family:'Noto Serif';-inkscape-font-specification:'Noto Serif, Italic';fill:#ffffff;stroke-width:0.264583">
      <path
         d="m 46.788469,88.467759 q -0.6731,0 -1.2446,-0.2921 -0.5588,-0.2921 -0.9017,-0.8636 -0.3302,-0.5842 -0.3302,-1.4732 0,-0.7112 0.2413,-1.4732 0.2413,-0.7747 0.7239,-1.4478 0.4826,-0.6731 1.1811,-1.0922 0.7112,-0.4191 1.6383,-0.4191 0.8001,0 1.2446,0.3937 0.4445,0.381 0.4445,1.0668 0,0.6604 -0.4826,1.2446 -0.4699,0.5842 -1.3081,0.9398 -0.8255,0.3556 -1.8923,0.3556 h -0.4445 q -0.0127,0.1397 -0.0254,0.2794 0,0.127 0,0.254 0,0.8128 0.3556,1.27 0.3556,0.4572 1.0414,0.4572 0.6096,0 1.0795,-0.2921 0.4826,-0.2921 0.7493,-0.6223 0.127,0.0889 0.127,0.3175 0,0.2794 -0.2413,0.6096 -0.2286,0.3175 -0.7112,0.5588 -0.4826,0.2286 -1.2446,0.2286 z m -0.889,-3.6449 q 0.7493,0 1.3208,-0.2413 0.5842,-0.254 0.9144,-0.6858 0.3429,-0.4445 0.3429,-1.0287 0,-0.8509 -0.7366,-0.8509 -0.3556,0 -0.6731,0.254 -0.3175,0.2413 -0.5715,0.6604 -0.254,0.4064 -0.4445,0.9017 -0.1778,0.4953 -0.2794,0.9906 z"
         id="path377" />
      <path
         d="m 51.652569,83.235359 q 0.0381,-0.1778 0.0508,-0.3429 0.0254,-0.1778 0.0254,-0.2286 0,-0.381 -0.3302,-0.4826 -0.3175,-0.1143 -0.6858,-0.1143 h -0.1016 l 0.1143,-0.5334 h 2.2479 l -0.2667,1.8288 h 0.127 q 0.2413,-0.5207 0.5207,-0.9652 0.2794,-0.4445 0.6731,-0.7112 0.3937,-0.2794 0.9652,-0.2794 0.5334,0 0.7874,0.254 0.254,0.2413 0.254,0.6223 0,0.4445 -0.254,0.7112 -0.2413,0.254 -0.8001,0.254 0,-0.4572 -0.1016,-0.7239 -0.1016,-0.2794 -0.4064,-0.2794 -0.3302,0 -0.6731,0.3429 -0.3302,0.3429 -0.635,0.9144 -0.2921,0.5588 -0.5334,1.2319 -0.2413,0.6604 -0.381,1.2954 l -0.4826,2.3114 h -1.1811 z"
         id="path379" />
      <path
         d="m 65.584474,88.467759 q -0.5588,0 -0.8636,-0.3556 -0.2921,-0.3683 -0.2921,-0.9144 0,-0.5842 0.2413,-1.7145 l 0.2159,-0.9906 q 0.0381,-0.1778 0.1016,-0.4445 0.0635,-0.2667 0.1143,-0.5588 0.0508,-0.2921 0.0508,-0.508 0,-0.254 -0.1143,-0.4953 -0.1016,-0.254 -0.4699,-0.254 -0.3683,0 -0.7366,0.254 -0.3556,0.2413 -0.6731,0.635 -0.3175,0.3937 -0.5588,0.8509 -0.2286,0.4445 -0.3556,0.8382 l -0.2032,0.9144 q -0.0381,0.1778 -0.1016,0.5461 -0.0635,0.3683 -0.127,0.8001 -0.0508,0.4191 -0.1016,0.7747 -0.0381,0.3556 -0.0381,0.4953 h -1.2065 q 0,-0.1524 0.0381,-0.4953 0.0508,-0.3556 0.1143,-0.7874 0.0635,-0.4445 0.1397,-0.8636 0.0762,-0.4191 0.1397,-0.7112 l 0.2159,-0.9906 q 0.0381,-0.1778 0.1016,-0.4445 0.0635,-0.2667 0.1143,-0.5588 0.0508,-0.2921 0.0508,-0.508 0,-0.254 -0.1143,-0.4953 -0.1016,-0.254 -0.4699,-0.254 -0.3937,0 -0.7874,0.2921 -0.3937,0.2921 -0.7366,0.7493 -0.3302,0.4572 -0.5715,0.9525 -0.2286,0.4826 -0.3048,0.8636 l -0.6858,3.2512 h -1.1811 l 1.0668,-5.1054 q 0.0381,-0.1778 0.0508,-0.3429 0.0254,-0.1778 0.0254,-0.2286 0,-0.381 -0.2667,-0.4826 -0.254,-0.1143 -0.6223,-0.1143 h -0.1016 l 0.1143,-0.5334 h 2.3495 l -0.3429,1.6002 h 0.127 q 0.5207,-0.8382 1.0541,-1.27 0.5461,-0.4445 1.2573,-0.4445 0.7493,0 1.0541,0.4318 0.3048,0.4191 0.3048,0.9779 0,0.0762 -0.0127,0.1524 0,0.0762 -0.0127,0.1524 h 0.127 q 0.5207,-0.8382 1.0541,-1.27 0.5461,-0.4445 1.2573,-0.4445 0.7493,0 1.0541,0.4318 0.3048,0.4191 0.3048,0.9779 0,0.3175 -0.0889,0.6985 -0.0762,0.3683 -0.1397,0.6985 l -0.3302,1.4986 q -0.0762,0.3556 -0.127,0.6985 -0.0381,0.3429 -0.0381,0.635 0,0.6096 0.4445,0.6096 0.3683,0 0.8128,-0.2921 l 0.2286,0.3683 q -0.3048,0.254 -0.6858,0.4953 -0.3683,0.2286 -0.8636,0.2286 z"
         id="path381" />
      <path
         d="m 70.372373,88.467759 q -0.6731,0 -1.2446,-0.2921 -0.5588,-0.2921 -0.9017,-0.8636 -0.3302,-0.5842 -0.3302,-1.4732 0,-0.7112 0.2413,-1.4732 0.2413,-0.7747 0.7239,-1.4478 0.4826,-0.6731 1.1811,-1.0922 0.7112,-0.4191 1.6383,-0.4191 0.8001,0 1.2446,0.3937 0.4445,0.381 0.4445,1.0668 0,0.6604 -0.4826,1.2446 -0.4699,0.5842 -1.3081,0.9398 -0.8255,0.3556 -1.8923,0.3556 h -0.4445 q -0.0127,0.1397 -0.0254,0.2794 0,0.127 0,0.254 0,0.8128 0.3556,1.27 0.3556,0.4572 1.0414,0.4572 0.6096,0 1.0795,-0.2921 0.4826,-0.2921 0.7493,-0.6223 0.127,0.0889 0.127,0.3175 0,0.2794 -0.2413,0.6096 -0.2286,0.3175 -0.7112,0.5588 -0.4826,0.2286 -1.2446,0.2286 z m -0.889,-3.6449 q 0.7493,0 1.3208,-0.2413 0.5842,-0.254 0.9144,-0.6858 0.3429,-0.4445 0.3429,-1.0287 0,-0.8509 -0.7366,-0.8509 -0.3556,0 -0.6731,0.254 -0.3175,0.2413 -0.5715,0.6604 -0.254,0.4064 -0.4445,0.9017 -0.1778,0.4953 -0.2794,0.9906 z"
         id="path383" />
      <path
         d="m 76.023874,88.467759 q -0.9525,0 -1.524,-0.381 -0.5715,-0.3937 -0.5715,-1.0541 0,-0.3429 0.1397,-0.5207 0.1397,-0.1905 0.3175,-0.254 0.1905,-0.0635 0.3429,-0.0635 0,0.4445 0.1397,0.8255 0.1397,0.381 0.4572,0.6096 0.3302,0.2286 0.8509,0.2286 0.635,0 1.0033,-0.2921 0.3683,-0.3048 0.3683,-0.889 0,-0.4445 -0.2921,-0.762 -0.2921,-0.3175 -0.9906,-0.635 -0.6985,-0.3302 -1.1176,-0.762 -0.4191,-0.4445 -0.4191,-1.2065 0,-0.8255 0.6604,-1.3589 0.6731,-0.5334 1.7907,-0.5334 0.6985,0 1.1303,0.1778 0.4318,0.1778 0.635,0.4572 0.2159,0.2794 0.2159,0.5715 0,0.3937 -0.254,0.5969 -0.254,0.1905 -0.6985,0.1905 0,-0.3429 -0.1143,-0.6604 -0.1016,-0.3302 -0.3556,-0.5334 -0.2413,-0.2159 -0.6731,-0.2159 -0.5715,0 -0.9017,0.3048 -0.3302,0.3048 -0.3302,0.7874 0,0.4318 0.3175,0.7239 0.3175,0.2794 0.9779,0.5842 0.6985,0.3175 1.1049,0.7747 0.4191,0.4572 0.4191,1.1938 0,0.9271 -0.7112,1.5113 -0.6985,0.5842 -1.9177,0.5842 z"
         id="path385" />
    </g>
    <path
       style="mix-blend-mode:normal;fill:none;fill-opacity:1;stroke:#ffffff;stroke-width:1.2;stroke-linecap:square;stroke-dasharray:none;stroke-dashoffset:0.46;stroke-opacity:1;marker-start:url(#marker4816);marker-end:url(#marker4734)"
       d="m 35.187526,88.645913 c 0.656115,-2.957824 0.779196,-3.905685 0.952434,-4.364808 0.173239,-0.459124 0.424382,-0.654973 0.685923,-0.74698 0.261541,-0.09201 0.533223,-0.08021 1.298494,-0.07112 0.76527,0.0091 2.024083,0.01546 2.701562,-0.01582 0.677479,-0.03128 0.886128,-0.224109 1.079269,-0.937377 0.180914,-0.787232 0.220744,-1.127726 0.380021,-1.906867"
       id="path7262"
       sodipodi:nodetypes="csccscc" />
    <path
       style="fill:none;fill-opacity:1;stroke:#ffffff;stroke-width:1.2;stroke-linecap:butt;stroke-dasharray:none;stroke-dashoffset:0.18;stroke-opacity:1;marker-start:url(#marker3858);marker-end:url(#Arrow1L)"
       d="m 37.189179,78.930778 c -0.459978,2.403745 -0.527206,2.762298 -0.631097,3.23902 -0.103891,0.476722 -0.199878,0.931895 0.03234,1.191573 0.23222,0.259677 0.792296,0.128031 1.683905,0.152774 0.89161,0.02474 2.16669,-0.02207 2.759714,0.02703 0.593024,0.04907 0.508242,0.712757 0.460041,0.949401 -0.331463,1.302163 -0.360592,1.965323 -0.50948,2.656577"
       id="path7764"
       sodipodi:nodetypes="csccccc" />
  </g>
</svg>
