<?xml version="1.0" encoding="UTF-8" standalone="no"?>
<!-- Generator: Adobe Illustrator 21.1.0, SVG Export Plug-In . SVG Version: 6.00 Build 0)  -->

<svg
   version="1.1"
   x="0px"
   y="0px"
   viewBox="0 0 190.60001 111.17091"
   xml:space="preserve"
   id="svg144"
   sodipodi:docname="logo insa strasbourg.svg"
   inkscape:export-filename="C:\Users\Boris\Documents\logo insa prod.png"
   inkscape:export-xdpi="14.81"
   inkscape:export-ydpi="14.81"
   inkscape:version="1.1.2 (0a00cf5339, 2022-02-04)"
   width="190.60001"
   height="111.17091"
   xmlns:inkscape="http://www.inkscape.org/namespaces/inkscape"
   xmlns:sodipodi="http://sodipodi.sourceforge.net/DTD/sodipodi-0.dtd"
   xmlns="http://www.w3.org/2000/svg"
   xmlns:svg="http://www.w3.org/2000/svg"
   xmlns:rdf="http://www.w3.org/1999/02/22-rdf-syntax-ns#"
   xmlns:cc="http://creativecommons.org/ns#"
   xmlns:dc="http://purl.org/dc/elements/1.1/"><metadata
     id="metadata150"><rdf:RDF><cc:Work
         rdf:about=""><dc:format>image/svg+xml</dc:format><dc:type
           rdf:resource="http://purl.org/dc/dcmitype/StillImage" /></cc:Work></rdf:RDF></metadata><defs
     id="defs148" /><sodipodi:namedview
     pagecolor="#ffa5ff"
     bordercolor="#666666"
     borderopacity="1"
     objecttolerance="10"
     gridtolerance="10"
     guidetolerance="10"
     inkscape:pageopacity="1"
     inkscape:pageshadow="2"
     inkscape:window-width="1920"
     inkscape:window-height="1163"
     id="namedview146"
     showgrid="false"
     inkscape:zoom="4.7840193"
     inkscape:cx="125.10401"
     inkscape:cy="55.810812"
     inkscape:window-x="0"
     inkscape:window-y="0"
     inkscape:window-maximized="1"
     inkscape:current-layer="svg144"
     fit-margin-top="10"
     fit-margin-left="10"
     fit-margin-right="10"
     fit-margin-bottom="10"
     inkscape:pagecheckerboard="false" /><style
     type="text/css"
     id="style2">
	.st0{fill:url(#SVGID_1_);}
	.st1{display:none;}
	.st2{display:inline;fill:#FFFFFF;}
	.st3{fill:#EE1B21;}
	.st4{fill:#6E6E6F;}
	.st5{fill:#C1C1C1;}
	.st6{fill:#FFFFFF;}
	.st7{fill:#E32518;}
	.st8{display:none;fill:none;stroke:#EBEBEB;stroke-width:1.0033;}
	.st9{display:none;fill:none;stroke:#EBEBEB;}
	.st10{display:none;fill:none;stroke:#EBEBEB;stroke-width:1.0163;}
	.st11{display:none;fill:none;stroke:#EBEBEB;stroke-width:0.9962;}
	.st12{display:none;fill:none;stroke:#EBEBEB;stroke-width:1.006;}
	.st13{fill:#E2E2E2;}
	.st14{fill:#95C11F;}
	.st15{fill:#666666;}
	.st16{fill:none;}
	.st17{fill:#95C11F;stroke:#FFFFFF;stroke-width:2;stroke-miterlimit:10;}
	.st18{font-family:'Impact';}
	.st19{font-size:120px;}
</style><g
     id="g57"
     transform="translate(-29.1,-32.849219)"><g
       id="g1063"
       inkscape:export-xdpi="88.910004"
       inkscape:export-ydpi="88.910004"><path
         class="st3"
         d="m 107.7,109.6 c -6.1,0 -12.2,0 -18.7,0 -3.7,-12.9 -7.5,-25.9 -11.2,-38.9 -0.2,0 -0.3,0.1 -0.5,0.1 0,12.9 0,25.9 0,38.9 -5.4,0 -10.5,0 -15.7,0 -0.7,-1.8 -1,-58 -0.3,-65 6.4,0 12.8,0 19.2,0 1.8,6.6 3.7,13.1 5.5,19.6 1.8,6.5 3.6,12.9 5.4,19.4 0.2,0 0.3,0 0.5,-0.1 0,-12.9 0,-25.8 0,-38.9 5.4,0 10.6,0 15.7,0 0.7,1.6 0.8,62.4 0.1,64.9 z"
         id="path27"
         inkscape:connector-curvature="0"
         style="fill:#ee1b21" /><path
         class="st3"
         d="m 173.8,109.6 c -6.2,0 -12,0 -18.2,0 5.3,-21.8 10.6,-43.3 15.9,-65 7.3,0 14.5,0 22,0 5.4,21.6 10.7,43.2 16.2,65.1 -6.2,0 -12.3,0 -18.5,0 -0.6,-3.8 -1.2,-7.4 -1.8,-11.2 -4.6,0 -9,0 -13.6,0 -0.7,3.7 -1.3,7.4 -2,11.1 z m 8.9,-50.9 c -0.1,0 -0.3,-0.1 -0.4,-0.1 -1.5,8.8 -3,17.7 -4.6,26.6 3.4,0 6.3,0 9.5,0 -1.5,-9 -3,-17.7 -4.5,-26.5 z"
         id="path29"
         inkscape:connector-curvature="0"
         style="fill:#ee1b21" /><path
         class="st3"
         d="m 155.9,63.2 c -5.8,0 -11,0 -16.3,0 -0.3,-1.5 -0.4,-3 -0.8,-4.5 -0.5,-1.7 -1.2,-3.2 -3.2,-3.7 -2.3,-0.6 -4.6,0.3 -5.8,2.4 -1.6,2.9 -1.1,6.3 1.7,8.3 2.5,1.8 5.4,3 8.2,4.4 2.8,1.4 5.8,2.5 8.5,4 4.6,2.6 7.7,6.6 8.6,11.8 0.8,4.7 0.6,9.4 -1.1,13.9 -1.8,4.9 -5.6,7.6 -10.4,9.2 -5,1.7 -10.2,2 -15.4,1.5 -3.2,-0.3 -6.5,-0.7 -9.4,-1.9 -6.1,-2.3 -8.6,-7.4 -9.1,-13.5 -0.1,-1.5 0,-3 0,-4.7 5.6,0 11,0 16.5,0 0.2,1.7 0.3,3.4 0.7,5 0.7,2.7 2.7,4 5.4,3.9 1.9,-0.1 3.3,-0.9 4.3,-2.4 1.8,-2.8 1.3,-6.6 -1.2,-9 -2.6,-2.5 -5.9,-3.5 -9.1,-4.8 -3.5,-1.5 -6.9,-2.9 -9.9,-5.3 -2.3,-1.8 -4,-4.1 -4.8,-6.7 -1.9,-5.9 -1.7,-12 0.7,-17.8 1.8,-4.2 4.9,-7.2 9.4,-8.7 7.4,-2.4 14.7,-2.3 22,0.1 4.7,1.6 7.6,5 8.9,9.5 0.9,2.9 1.1,5.8 1.6,9 z"
         id="path31"
         inkscape:connector-curvature="0"
         style="fill:#ee1b21" /><path
         class="st3"
         d="m 56.2,109.7 c -5.8,0 -11.4,0 -17.1,0 0,-21.7 0,-43.4 0,-65.1 5.7,0 11.3,0 17.1,0 0,21.6 0,43.3 0,65.1 z"
         id="path33"
         inkscape:connector-curvature="0"
         style="fill:#ee1b21" /><path
         class="st4"
         d="m 197.8,44.3 c 4.1,0 7.9,0 11.7,0 0,16 0,32 0,47.9 -0.1,0 -0.2,0 -0.3,0.1 -3.7,-15.9 -7.5,-31.9 -11.4,-48 z"
         id="path35"
         inkscape:connector-curvature="0"
         style="fill:#6e6e6f" /><path
         class="st4"
         d="m 152.9,120.3 c 1.7,0 3.2,0 4.6,0 1.5,0.1 3.1,0.3 3.8,1.8 0.7,1.6 0.4,3.2 -1,4.4 0.5,0.7 1.1,1.2 1.4,1.9 1,2.3 -0.3,4.7 -2.9,5.3 -0.5,0.1 -1.1,0.2 -1.6,0.2 -1.4,0 -2.8,0 -4.4,0 0.1,-4.6 0.1,-9 0.1,-13.6 z m 3.3,10.9 c 1.5,0.2 2.4,-0.2 2.3,-1.6 -0.1,-1.4 -0.9,-1.8 -2.3,-1.4 0,0.9 0,1.9 0,3 z m 0,-5.7 c 1.4,0.2 2.2,-0.2 2.1,-1.4 -0.1,-1.1 -0.9,-1.5 -2.1,-1.2 0,0.9 0,1.7 0,2.6 z"
         id="path37"
         inkscape:connector-curvature="0"
         style="fill:#6e6e6f" /><path
         class="st4"
         d="m 122.9,133.7 c -0.1,-1.3 -0.2,-2.4 -0.3,-3.5 -0.1,-1.2 -0.4,-2 -2.1,-1.6 0,1.6 0,3.3 0,5.1 -1.3,0 -2.3,0 -3.5,0 0,-4.4 0,-8.7 0,-13.3 2.3,-0.3 4.7,-0.4 7,0.2 1.6,0.4 2.5,2.1 2.1,3.9 -0.2,0.9 -0.7,1.7 -1.2,2.7 1.9,1.6 1,4.1 1.4,6.5 -1.1,0 -2.1,0 -3.4,0 z m -2.6,-7.8 c 1.9,-0.2 2.6,-0.7 2.5,-1.9 -0.1,-1.1 -0.8,-1.4 -2.5,-1 0,0.9 0,1.8 0,2.9 z"
         id="path39"
         inkscape:connector-curvature="0"
         style="fill:#6e6e6f" /><path
         class="st4"
         d="m 188.5,120.4 c 2,0 3.8,-0.2 5.6,0 3.2,0.3 4.5,3.2 2.7,5.9 -0.2,0.2 -0.4,0.4 -0.6,0.7 1.7,2.1 1,4.5 1.7,6.8 -1.3,0 -2.3,0 -3.5,0 -0.1,-1.3 -0.2,-2.5 -0.3,-3.7 -0.1,-1.3 -0.7,-2 -2.4,-1.4 0,1.6 0,3.3 0,5.1 -1.1,0 -2,0 -3.1,0 -0.1,-4.5 -0.1,-8.9 -0.1,-13.4 z m 3.3,2.5 c 0,1.1 0,2 0,2.9 1.5,0.3 2.3,-0.2 2.4,-1.5 0,-1.5 -1.1,-1.7 -2.4,-1.4 z"
         id="path41"
         inkscape:connector-curvature="0"
         style="fill:#6e6e6f" /><path
         class="st4"
         d="m 164.2,127.2 c 0.1,-1.3 0.2,-2.6 0.5,-3.9 0.4,-2.2 1.8,-3.2 4.2,-3.2 2.6,-0.1 4.4,0.8 4.6,3 0.3,2.6 0.4,5.2 0.1,7.8 -0.3,2.5 -1.7,3.2 -4.7,3.1 -2.6,0 -3.8,-0.9 -4.3,-3.4 -0.2,-1.1 -0.2,-2.2 -0.4,-3.4 z m 5,-5 c -0.2,0.1 -0.5,0.2 -0.7,0.3 -1.1,2.8 -0.8,5.7 -0.3,8.5 0.1,0.4 1,0.6 1.7,1 1,-3.1 0.9,-5.8 0.3,-8.6 0,-0.4 -0.6,-0.8 -1,-1.2 z"
         id="path43"
         inkscape:connector-curvature="0"
         style="fill:#6e6e6f" /><path
         class="st4"
         d="m 176.5,120.3 c 1.2,0 2.1,0 3.1,0 0.6,3.8 -0.4,7.6 0.6,11.2 1.6,0.3 1.9,-0.4 1.9,-1.5 0,-2.3 0,-4.7 0,-7 0,-0.8 0,-1.7 0,-2.7 1.1,0 2.1,0 3.2,0 0,3.6 0,7.2 0,10.7 0,0.6 -0.4,1.4 -0.9,1.8 -1.6,1.5 -3.6,1.3 -5.6,0.8 -1.7,-0.4 -2.3,-1.8 -2.4,-3.4 0.1,-3.1 0.1,-6.3 0.1,-9.9 z"
         id="path45"
         inkscape:connector-curvature="0"
         style="fill:#6e6e6f" /><path
         class="st4"
         d="m 209.1,124.5 c -0.5,0 -0.9,0.1 -1.3,0.1 -0.5,0 -0.9,-0.1 -1.3,-0.1 -0.6,-0.8 -1.1,-1.6 -1.8,-2.6 -1.8,2.3 -1.2,4.5 -1.2,6.6 0,1.2 -0.4,2.6 1.2,3.3 1.5,-0.2 1.4,-1.4 1.6,-2.5 -1,-0.5 -2,-1 -1.2,-2.5 1.2,0 2.5,0 4,0 0,2.2 0,4.5 0,6.9 -2,0.1 -4,0.4 -6,0.3 -1.4,0 -2.5,-1 -2.6,-2.3 -0.2,-2.9 -0.3,-5.9 0,-8.7 0.2,-2.1 2.5,-3.1 5.3,-2.8 2.2,0.1 3.2,1.3 3.3,4.3 z"
         id="path47"
         inkscape:connector-curvature="0"
         style="fill:#6e6e6f" /><path
         class="st4"
         d="m 149.7,124.2 c -0.8,0 -1.7,0.1 -2.4,0.1 -0.5,-0.8 -1,-1.4 -1.5,-2.1 -1.4,0.9 -1.6,1.8 -0.5,2.7 0.5,0.4 1.2,0.7 1.9,0.9 2.7,1.1 3.6,2.8 3.1,5.3 -0.5,2 -1.9,2.9 -4.7,2.9 -3.3,0 -4.4,-1.1 -4.4,-4.3 0.3,-0.1 0.6,-0.2 0.9,-0.2 0.6,0 1.2,0 2,0 0.3,0.7 0.6,1.4 1,2.5 0.7,-0.5 1.5,-0.8 1.7,-1.3 0.1,-0.5 -0.3,-1.3 -0.7,-1.7 -0.6,-0.5 -1.4,-0.6 -2.1,-1 -2.4,-1.1 -3.2,-2.7 -2.6,-5 0.5,-2.1 2,-3 4.7,-2.9 2.8,0.1 3.9,1.3 3.6,4.1 z"
         id="path49"
         inkscape:connector-curvature="0"
         style="fill:#6e6e6f" /><path
         class="st4"
         d="m 99.4,122.1 c -1.5,1.5 -1.5,2.1 -0.2,2.9 0.9,0.5 1.9,0.8 2.8,1.3 1.8,1 2.4,2.5 1.9,4.8 -0.3,1.6 -1.6,2.7 -3.6,2.8 -0.5,0 -1.1,0 -1.7,0 -2.9,-0.1 -3.8,-1.1 -3.7,-4.4 0.9,-0.1 1.7,-0.1 2.7,-0.2 0.2,0.5 0.3,1 0.5,1.4 0.4,0.9 1.1,1.2 1.9,0.6 0.7,-0.5 0.9,-1.4 0.1,-2 -0.8,-0.6 -1.7,-1 -2.6,-1.5 -2.1,-1 -2.8,-2.1 -2.6,-4.4 0.2,-2.2 1.6,-3.4 4.2,-3.5 2.8,-0.1 4.3,0.9 4.6,3.2 0,0.2 -0.1,0.4 -0.2,0.9 -0.8,0 -1.6,0.1 -2.5,0.1 -0.5,-0.5 -1,-1.2 -1.6,-2 z"
         id="path51"
         inkscape:connector-curvature="0"
         style="fill:#6e6e6f" /><path
         class="st4"
         d="m 131.9,120.4 c 1.4,0 2.7,0 4.1,0 1.1,4.4 2.2,8.8 3.4,13.4 -1.2,0 -2.2,0 -3.4,0 -0.2,-0.7 -0.4,-1.4 -0.6,-2.3 -0.9,0 -1.8,0 -2.8,0 -0.2,0.7 -0.5,1.4 -0.8,2.3 -1,0 -2.1,0 -3.4,0 1.2,-4.6 2.4,-9 3.5,-13.4 z m 3,8.2 c -0.3,-1.6 -0.6,-3.1 -0.9,-4.6 -0.1,0 -0.3,0 -0.4,0.1 -0.2,1.5 -0.4,2.9 -0.7,4.5 0.7,0 1.2,0 2,0 z"
         id="path53"
         inkscape:connector-curvature="0"
         style="fill:#6e6e6f" /><path
         class="st4"
         d="m 105.9,123 c 0,-0.9 0,-1.7 0,-2.7 2.9,0 5.7,0 8.7,0 0,0.9 0,1.7 0,2.6 -0.8,0.1 -1.5,0.2 -2.6,0.3 0,3.4 0,6.8 0,10.4 -1.3,0 -2.2,0 -3.4,0 0,-3.5 0,-6.9 0,-10.4 -1,0 -1.8,-0.1 -2.7,-0.2 z"
         id="path55"
         inkscape:connector-curvature="0"
         style="fill:#6e6e6f" /></g></g></svg>
